<svg width="47" height="51" viewBox="0 0 47 51" fill="none" xmlns="http://www.w3.org/2000/svg">
<path opacity="0.3" fill-rule="evenodd" clip-rule="evenodd" d="M46.7692 0.0996094H0.769165V50.0996H46.7692V0.0996094ZM29.5482 24.3715H24.5562V19.3155C24.5562 19.0595 24.4282 18.9315 24.1722 18.9315H23.4362C23.1802 18.9315 23.0522 19.0595 23.0522 19.3155V24.3715H18.0602C17.8042 24.3715 17.6762 24.4888 17.6762 24.7235V25.4275C17.6762 25.6621 17.8042 25.7795 18.0602 25.7795H23.0522V30.8355C23.0522 31.0915 23.1802 31.2195 23.4362 31.2195H24.1722C24.4282 31.2195 24.5562 31.0915 24.5562 30.8355V25.7795H29.5482C29.8042 25.7795 29.9322 25.6621 29.9322 25.4275V24.7235C29.9322 24.4888 29.8042 24.3715 29.5482 24.3715Z" fill="white"/>
</svg>
