<svg width="47" height="50" viewBox="0 0 47 50" fill="none" xmlns="http://www.w3.org/2000/svg">
<rect x="0.351562" y="0.000305176" width="46" height="50" fill="#101010"/>
<path d="M24.1386 24.2722H29.1306C29.3866 24.2722 29.5146 24.3895 29.5146 24.6242V25.3282C29.5146 25.5628 29.3866 25.6802 29.1306 25.6802H24.1386V30.7362C24.1386 30.9922 24.0106 31.1202 23.7546 31.1202H23.0186C22.7626 31.1202 22.6346 30.9922 22.6346 30.7362V25.6802H17.6426C17.3866 25.6802 17.2586 25.5628 17.2586 25.3282V24.6242C17.2586 24.3895 17.3866 24.2722 17.6426 24.2722H22.6346V19.2162C22.6346 18.9602 22.7626 18.8322 23.0186 18.8322H23.7546C24.0106 18.8322 24.1386 18.9602 24.1386 19.2162V24.2722Z" fill="white"/>
</svg>
